Prom.Night.2008.720p.BluRay.DTS.x264-DNL


Size:	4.36 GB

Genres:	Horror , Mystery , Thriller

Actors:	Brittany Snow , Scott Porter , Jessica Stroup , Dana Davis , Collins Pennie
        Kelly Blatz , James Ransone , Brianne Davis , Kellan Lutz , Mary Mara , 
        Ming-Na , Johnathon Schaech , Idris Elba , Jessalyn Gilsig , Linden Ashby

Dir:	Nelson McCormick

Runtime:88 min

Year:	2008

Plot:	Donnas senior prom is supposed to be the best night of her life| one of 
        magic| beauty| and love. Surrounded by her best friends| she should be safe
        from the horrors of her past. But when the night turns from magic to murder 
        there is only one man who could be responsible| the man she thought was gone 
        forever. Now| Donna and her friends must find a way to escape the sadistic 
        rampage of an obsessed killer| and survive their Prom Night. 





Format                           : Matroska
File size                        : 4.36 GiB
Duration                         : 1h 29mn
Overall bit rate                 : 6 992 Kbps


Video
ID                               : 1
Format                           : AVC
Format/Info                      : Advanced Video Codec
Format profile                   : High@L4.1
Format settings, CABAC           : Yes
Format settings, ReFrames        : 11 frames
Format settings, GOP             : M=4, N=48
Codec ID                         : V_MPEG4/ISO/AVC
Duration                         : 1h 29mn
Bit rate mode                    : Variable
Bit rate                         : 5 484 Kbps
Maximum bit rate                 : 25.0 Mbps
Width                            : 1 280 pixels
Height                           : 534 pixels
Display aspect ratio             : 2.35:1
Frame rate                       : 23.976 fps
Color space                      : YUV
Chroma subsampling               : 4:2:0
Bit depth                        : 8 bits
Scan type                        : Progressive
Bits/(Pixel*Frame)               : 0.335
Stream size                      : 3.33 GiB (76%)
Writing library                  : x264 core 114 r1924 08d04a4

Audio
ID                               : 2
Format                           : DTS
Format/Info                      : Digital Theater Systems
Codec ID                         : A_DTS
Duration                         : 1h 29mn
Bit rate mode                    : Constant
Bit rate                         : 1 510 Kbps
Channel(s)                       : 6 channels
Channel positions                : Front: L C R, Side: L R, LFE
Sampling rate                    : 48.0 KHz
Bit depth                        : 24 bits
Compression mode                 : Lossy
Stream size                      : 963 MiB (22%)
